<svg xmlns="http://www.w3.org/2000/svg" viewBox="0 0 64 64" id="project-report">
  <path fill="#e6e7e8" d="M58 11v46a4 4 0 0 1-4 4H18a4 4 0 0 1-4-4V7a4 4 0 0 1 4-4h32v6a2.006 2.006 0 0 0 2 2Z"></path>
  <path fill="#d8d7da" d="M58 24v33a4 4 0 0 1-4 4H21Z"></path>
  <path fill="#ff9811" d="M24.49 49.68A1.94 1.94 0 0 1 25 51a2 2 0 1 1-2-2 1.961 1.961 0 0 1 1.49.68zM34 43a1.987 1.987 0 0 1-2 2 1.961 1.961 0 0 1-1.49-.68A1.94 1.94 0 0 1 30 43a2 2 0 0 1 4 0zm10.03 4.29A2 2 0 1 1 41 49a1.987 1.987 0 0 1 2-2 1.9 1.9 0 0 1 1.03.29zM49 37a2 2 0 0 1 0 4 1.9 1.9 0 0 1-1.03-.29A2 2 0 0 1 49 37z"></path>
  <path fill="#bcbec0" d="M58 11h-6a2.006 2.006 0 0 1-2-2V3Z"></path>
  <path fill="#d8d7da" d="M17 33.35v1.3a.977.977 0 0 0 .22.62L21 40a1 1 0 0 1 1 1v2a1 1 0 0 1-1 1h-7V24h7a1 1 0 0 1 1 1v2a1 1 0 0 1-1 1l-3.78 4.73a.977.977 0 0 0-.22.62Z"></path>
  <rect width="14" height="4" x="6" y="38" fill="#ee8700" rx="1"></rect>
  <path fill="#ffb655" d="m19 26-3.78 4.73a.977.977 0 0 0-.22.62v1.3a.977.977 0 0 0 .22.62L19 38H7l3.78-4.73a.977.977 0 0 0 .22-.62v-1.3a.977.977 0 0 0-.22-.62L7 26Z"></path>
  <rect width="14" height="4" x="6" y="22" fill="#ee8700" rx="1"></rect>
  <path d="m58.707 10.293-8-8A1 1 0 0 0 50 2H18a5.006 5.006 0 0 0-5 5v12h2V7a3 3 0 0 1 3-3h31v5a3 3 0 0 0 3 3h5v45a3 3 0 0 1-3 3H18a3 3 0 0 1-3-3V45h-2v12a5.006 5.006 0 0 0 5 5h36a5.006 5.006 0 0 0 5-5V11a1 1 0 0 0-.293-.707ZM51 9V5.414L55.586 10H52a1 1 0 0 1-1-1Z"></path>
  <path d="M19 8h2v2h-2zM23 8h6v2h-6zM19 12h10v2H19zM35 43a3 3 0 0 0-6 0 2.972 2.972 0 0 0 .224 1.126l-4.783 4.259A2.961 2.961 0 0 0 23 48a3 3 0 1 0 3 3 2.972 2.972 0 0 0-.224-1.126l4.783-4.259a2.925 2.925 0 0 0 3.433-.389l6.056 3.3A2.925 2.925 0 0 0 40 49a3 3 0 0 0 6 0 2.969 2.969 0 0 0-.694-1.9l3.094-5.161A2.964 2.964 0 0 0 49 42a3 3 0 1 0-3-3 2.969 2.969 0 0 0 .694 1.9L43.6 46.061a2.957 2.957 0 0 0-2.592.713l-6.056-3.3A2.925 2.925 0 0 0 35 43Zm-12 9a1 1 0 1 1 1-1 1 1 0 0 1-1 1Zm9-8a1 1 0 1 1 1-1 1 1 0 0 1-1 1Zm17-6a1 1 0 1 1-1 1 1 1 0 0 1 1-1Zm-6 10a1 1 0 1 1-1 1 1 1 0 0 1 1-1ZM41 20h12v2H41zM23 20h16v2H23zM41 24h12v2H41zM23 24h16v2H23zM41 28h12v2H41zM23 28h16v2H23zM41 32h12v2H41zM23 32h16v2H23zM19.549 26.914A2 2 0 0 0 21 25v-2a2 2 0 0 0-2-2H7a2 2 0 0 0-2 2v2a2 2 0 0 0 1.451 1.914L10 31.351v1.3l-3.549 4.435A2 2 0 0 0 5 39v2a2 2 0 0 0 2 2h12a2 2 0 0 0 2-2v-2a2 2 0 0 0-1.451-1.914L16 32.649v-1.3ZM7 23h12v2H7Zm0 18v-2h12v2Zm7.438-7.1L16.92 37H9.08l2.481-3.1A2 2 0 0 0 12 32.649v-1.3a2 2 0 0 0-.438-1.249L9.08 27h7.84l-2.481 3.1A2 2 0 0 0 14 31.351v1.3a2 2 0 0 0 .438 1.249Z"></path>
</svg>
